# xmcd CD database file
#
# Track frame offsets:
#	150
#	15422
#	28597
#	40136
#	52506
#	66591
#	80020
#	90560
#	104018
#	115600
#	125592
#	136509
#	149886
#	165025
#	176748
#	187980
#	206368
#	226740
#
# Disc length: 3165 seconds
#
# Revision: 2
# Processed by: cddbd v1.5.2PL0 Copyright (c) Steve Scherf et al.
# Submitted via: CDex 2.23
#
DISCID=e40c5b12
DTITLE=Kenny Rogers - Greatest Hits
DYEAR=2007
DGENRE=Country
TTITLE0=For The Good Times
TTITLE1=Ruby, Don't Take Your Love
TTITLE2=Me And Bobby McGee
TTITLE3=Reuben James
TTITLE4=SunShine
TTITLE5=A Stranger in My Place
TTITLE6=Trying just as Hard
TTITLE7=Shine On Ruby Mountain
TTITLE8=Poem For My Little Lady
TTITLE9=Where Does Rosie Go?
TTITLE10=Always Leaving, Always Gone
TTITLE11=But You know I Love You
TTITLE12=Just Dropped In (to see what condition my condition was in)
TTITLE13=I Just Want To Give To You
TTITLE14=If Wishes Were Horses
TTITLE15=King Of Oak Street
TTITLE16=Lay It Down
TTITLE17=She Even Woke Me Up To Say Goodbye
EXTD=YEAR: 2007
EXTT0=
EXTT1=
EXTT2=
EXTT3=
EXTT4=
EXTT5=
EXTT6=
EXTT7=
EXTT8=
EXTT9=
EXTT10=
EXTT11=
EXTT12=
EXTT13=
EXTT14=
EXTT15=
EXTT16=
EXTT17=
PLAYORDER=
